<svg
   xmlns:dc="http://purl.org/dc/elements/1.1/"
   xmlns:cc="http://creativecommons.org/ns#"
   xmlns:rdf="http://www.w3.org/1999/02/22-rdf-syntax-ns#"
   xmlns:svg="http://www.w3.org/2000/svg"
   xmlns="http://www.w3.org/2000/svg"
   id="svg38"
   version="1.1"
   viewBox="0 0 380 280">
  <metadata
     id="metadata44">
    <rdf:RDF>
      <cc:Work
         rdf:about="">
        <dc:format>image/svg+xml</dc:format>
        <dc:type
           rdf:resource="http://purl.org/dc/dcmitype/StillImage" />
      </cc:Work>
    </rdf:RDF>
  </metadata>
  <defs
     id="defs42" />
  <svg
     height="100%"
     width="100%"
     id="svg7"
     version="1.1"
     viewBox="0 0 380 280">
    <linearGradient
       y2="0"
       x2="1"
       y1="1"
       x1="0"
       id="icon_color_gradient">
      <stop
         id="stop2"
         stop-opacity="1"
         stop-color="#191E78"
         offset="0%" />
      <stop
         id="stop4"
         stop-opacity="1"
         stop-color="#2DD5FF"
         offset="100%" />
    </linearGradient>
  </svg>
  <svg
     id="svg15"
     version="1.1"
     height="44.342857"
     width="64"
     y="96.516075"
     x="158">
    <g
       style="fill:url(#icon_color_gradient)"
       id="g13">
      <svg
         height="100%"
         width="100%"
         id="svg11"
         version="1.1"
         viewBox="0 0 280 194">
        <path
           style="fill-rule:evenodd;stroke:none"
           id="path9"
           d="m 138.136,17.539 c -2.864,2.41 -3.008,2.889 -2.827,9.427 0.177,6.369 -0.028,7.117 -2.724,9.937 -3.394,3.552 -5.923,4.473 -17.906,6.517 -13.901,2.371 -18.657,6.455 -17.206,14.774 1.318,7.56 0.93,9.784 -2.555,14.631 -9.913,13.785 -18.188,27.001 -23.783,37.982 -3.449,6.77 -6.908,12.552 -7.687,12.851 -0.78,0.299 -2.887,-0.299 -4.683,-1.33 -4.833,-2.773 -7.561,-9.404 -9.297,-22.594 C 47.635,85.806 45.012,77.744 39.751,69.865 35.102,62.904 31.713,61 23.966,61 18.426,61 15,62.302 15,64.407 c 0,0.735 2.248,4.779 4.995,8.988 10.613,16.257 11.595,19.86 9.431,34.605 -1.991,13.574 1.625,26.612 9.888,35.653 2.752,3.011 8.869,8.222 13.595,11.579 4.725,3.358 12.077,8.942 16.337,12.409 9.325,7.588 11.516,8.773 19.149,10.346 6.701,1.381 13.336,0.901 31.105,-2.25 17.1,-3.033 41.506,-2.94 57.5,0.218 6.325,1.249 16.257,2.492 22.072,2.762 9.354,0.435 11.164,0.237 15.713,-1.72 5.697,-2.45 12.882,-9.465 16.043,-15.659 1.107,-2.17 2.536,-6.847 3.176,-10.392 1.88,-10.419 3.552,-12.936 10.996,-16.547 8.379,-4.065 13.539,-9.189 17.26,-17.141 2.734,-5.841 2.947,-7.066 2.534,-14.568 -0.789,-14.363 -7.86,-24.865 -18.486,-27.453 -11.71,-2.853 -17.951,-2.406 -26.518,1.899 -9.646,4.846 -16.648,-1.014 -18.723,-15.669 -1.002,-7.071 -2.709,-10.531 -6.384,-12.939 -3.444,-2.257 -12.935,-5.309 -21.644,-6.961 -9.917,-1.881 -15.791,-4.243 -17.253,-6.937 -0.635,-1.172 -1.054,-5.007 -0.931,-8.523 0.19,-5.407 -0.117,-6.757 -1.99,-8.75 -3.202,-3.409 -10.569,-3.318 -14.729,0.182 M 229.5,83.621 c -6.594,1.67 -14.5,4.685 -14.5,5.53 0,0.544 1.463,3.071 3.25,5.617 1.787,2.546 6.175,10.497 9.75,17.67 4.243,8.513 7.125,13.16 8.3,13.384 2.379,0.454 12.313,-7.28 15.461,-12.038 2.273,-3.433 2.453,-4.494 2.053,-12.101 -0.47,-8.957 -2.532,-13.853 -6.983,-16.583 -2.327,-1.426 -13.705,-2.397 -17.331,-1.479" />
      </svg>
    </g>
  </svg>
  <g
     transform="translate(190,162.17143)"
     id="container">
    <g
       id="text17"
       style="font-size:40px;font-family:'IDDianHei 55J';fill:#2d5999;fill-opacity:1"
       aria-label="l">
      <path
         id="path46"
         style="font-size:40px;font-family:'IDDianHei 55J';fill:#2d5999;fill-opacity:1"
         d="m -100.4875,-15.2675 v 29.52 h -3.52 v -29.52 z" />
    </g>
    <g
       id="text19"
       style="font-size:40px;font-family:'IDDianHei 55J';fill:#2d5999;fill-opacity:1"
       aria-label="e">
      <path
         id="path49"
         style="font-size:40px;font-family:'IDDianHei 55J';fill:#2d5999;fill-opacity:1"
         d="m -95.0575,3.5725 q 0,-2.24 0.6,-4.32 0.64,-2.08 1.88,-3.64 1.24,-1.6 3.12,-2.56 1.88,-0.96 4.4,-0.96 2.52,0 4.36,0.92 1.88,0.88 3.08,2.4 1.24,1.48 1.84,3.44 0.6,1.96 0.6,4.12 v 1.64 h -16.4 q -0.04,1.6 0.36,2.96 0.44,1.36 1.28,2.36 0.88,1 2.12,1.6 1.28,0.56 2.92,0.56 2.36,0 3.96,-1.04 1.64,-1.04 2.48,-2.64 l 3.16,0.52 q -1.2,2.8 -3.6,4.4 -2.36,1.64 -6,1.64 -2.6,0 -4.52,-0.92 -1.88,-0.88 -3.16,-2.4 -1.24,-1.56 -1.88,-3.64 -0.6,-2.08 -0.6,-4.44 z m 16.36,-1.68 q 0,-1.24 -0.4,-2.48 -0.4,-1.24 -1.24,-2.24 -0.8,-1 -2,-1.6 -1.16,-0.6 -2.72,-0.6 -1.52,0 -2.72,0.6 -1.2,0.6 -2.04,1.6 -0.84,1 -1.32,2.24 -0.44,1.24 -0.44,2.48 z" />
    </g>
    <g
       id="text21"
       style="font-size:40px;font-family:'IDDianHei 55J';fill:#2d5999;fill-opacity:1"
       aria-label="a">
      <path
         id="path52"
         style="font-size:40px;font-family:'IDDianHei 55J';fill:#2d5999;fill-opacity:1"
         d="m -70.3075,9.4925 q 0,-2.12 1.04,-3.64 1.08,-1.56 3.04,-2.64 2,-1.08 4.76,-1.76 2.8,-0.72 6.24,-1.16 v -1.24 q 0,-0.8 -0.28,-1.52 -0.28,-0.76 -0.92,-1.32 -0.64,-0.56 -1.64,-0.88 -1,-0.36 -2.48,-0.36 -0.88,0 -1.76,0.2 -0.84,0.16 -1.64,0.6 -0.76,0.4 -1.4,1.12 -0.64,0.68 -1.04,1.76 l -3.24,-0.48 q 0.96,-2.8 3.32,-4.44 2.4,-1.64 5.92,-1.64 4.36,0 6.48,1.88 2.16,1.88 2.16,5.04 v 11.84 q 0,0.8 0.48,1.04 0.48,0.2 1.76,0.08 v 2.28 q -0.68,0.12 -1.4,0.2 -0.68,0.08 -1.24,0.08 -0.84,0 -1.68,-0.4 -0.8,-0.36 -1.04,-1.16 -0.04,-0.04 -0.08,-0.24 -0.04,-0.24 -0.08,-0.52 -0.04,-0.28 -0.08,-0.52 0,-0.24 0,-0.28 -1.48,1.52 -3.64,2.44 -2.16,0.96 -4.68,0.96 -1.28,0 -2.52,-0.32 -1.24,-0.28 -2.2,-0.96 -0.96,-0.64 -1.56,-1.6 -0.6,-1 -0.6,-2.44 z m 3.52,-0.36 q 0,1.44 1.08,2.16 1.08,0.68 3,0.68 2.28,0 4.08,-0.88 1.84,-0.88 3.36,-2.28 0,-0.44 0,-1.2 0,-0.76 0,-1.6 0.04,-0.84 0.04,-1.6 0,-0.76 0,-1.2 -2.32,0.32 -4.44,0.76 -2.08,0.44 -3.68,1.12 -1.56,0.68 -2.52,1.68 -0.92,0.96 -0.92,2.36 z" />
    </g>
    <g
       id="text23"
       style="font-size:40px;font-family:'IDDianHei 55J';fill:#2d5999;fill-opacity:1"
       aria-label="v">
      <path
         id="path55"
         style="font-size:40px;font-family:'IDDianHei 55J';fill:#2d5999;fill-opacity:1"
         d="m -42.1075,-7.3475 6.56,18.24 h 0.08 l 6.56,-18.24 h 3.8 l -8.28,21.6 h -4.24 l -8.28,-21.6 z" />
    </g>
    <g
       id="text25"
       style="font-size:40px;font-family:'IDDianHei 55J';fill:#2d5999;fill-opacity:1"
       aria-label="e">
      <path
         id="path58"
         style="font-size:40px;font-family:'IDDianHei 55J';fill:#2d5999;fill-opacity:1"
         d="m -22.0575,3.5725 q 0,-2.24 0.6,-4.32 0.64,-2.08 1.88,-3.64 1.24,-1.6 3.12,-2.56 1.88,-0.96 4.4,-0.96 2.52,0 4.36,0.92 1.88,0.88 3.08,2.4 1.24,1.48 1.84,3.44 0.6,1.96 0.6,4.12 v 1.64 h -16.4 q -0.04,1.6 0.36,2.96 0.44,1.36 1.28,2.36 0.88,1 2.12,1.6 1.28,0.56 2.92,0.56 2.36,0 3.96,-1.04 1.64,-1.04 2.48,-2.64 l 3.16,0.52 q -1.2,2.8 -3.6,4.4 -2.36,1.64 -6,1.64 -2.6,0 -4.52,-0.92 -1.88,-0.88 -3.16,-2.4 -1.24,-1.56 -1.88,-3.64 -0.6,-2.08 -0.6,-4.44 z m 16.36,-1.68 q 0,-1.24 -0.4,-2.48 -0.4,-1.24 -1.24,-2.24 -0.8,-1 -2,-1.6 -1.16,-0.6 -2.72,-0.6 -1.52,0 -2.72,0.6 -1.2,0.6 -2.04,1.6 -0.84,1 -1.32,2.24 -0.44,1.24 -0.44,2.48 z" />
    </g>
    <g
       id="text27"
       style="font-size:40px;font-family:'IDDianHei 55J';fill:#2d5999;fill-opacity:1"
       aria-label="h">
      <path
         id="path61"
         style="font-size:40px;font-family:'IDDianHei 55J';fill:#2d5999;fill-opacity:1"
         d="m 7.0125,-15.2675 v 11 q 1.52,-1.72 3.36,-2.68 1.88,-0.96 3.84,-0.96 3.64,0 5.6,1.96 2,1.96 2,5.72 v 14.48 h -3.48 v -13.8 q 0,-2.6 -1.36,-4.04 -1.36,-1.44 -3.76,-1.44 -3.4,0 -6.2,3 v 16.28 h -3.52 v -29.52 z" />
    </g>
    <g
       id="text29"
       style="font-size:40px;font-family:'IDDianHei 55J';fill:#2d5999;fill-opacity:1"
       aria-label="e">
      <path
         id="path64"
         style="font-size:40px;font-family:'IDDianHei 55J';fill:#2d5999;fill-opacity:1"
         d="m 27.4425,3.5725 q 0,-2.24 0.6,-4.32 0.64,-2.08 1.88,-3.64 1.24,-1.6 3.12,-2.56 1.88,-0.96 4.4,-0.96 2.52,0 4.36,0.92 1.88,0.88 3.08,2.4 1.24,1.48 1.84,3.44 0.6,1.96 0.6,4.12 v 1.64 h -16.4 q -0.04,1.6 0.36,2.96 0.44,1.36 1.28,2.36 0.88,1 2.12,1.6 1.28,0.56 2.92,0.56 2.36,0 3.96,-1.04 1.64,-1.04 2.48,-2.64 l 3.16,0.52 q -1.2,2.8 -3.6,4.4 -2.36,1.64 -6,1.64 -2.6,0 -4.52,-0.92 -1.88,-0.88 -3.16,-2.4 -1.24,-1.56 -1.88,-3.64 -0.6,-2.08 -0.6,-4.44 z m 16.36,-1.68 q 0,-1.24 -0.4,-2.48 -0.4,-1.24 -1.24,-2.24 -0.8,-1 -2,-1.6 -1.16,-0.6 -2.72,-0.6 -1.52,0 -2.72,0.6 -1.2,0.6 -2.04,1.6 -0.84,1 -1.32,2.24 -0.44,1.24 -0.44,2.48 z" />
    </g>
    <g
       id="text31"
       style="font-size:40px;font-family:'IDDianHei 55J';fill:#2d5999;fill-opacity:1"
       aria-label="a">
      <path
         id="path67"
         style="font-size:40px;font-family:'IDDianHei 55J';fill:#2d5999;fill-opacity:1"
         d="m 52.1925,9.4925 q 0,-2.12 1.04,-3.64 1.08,-1.56 3.04,-2.64 2,-1.08 4.76,-1.76 2.8,-0.72 6.24,-1.16 v -1.24 q 0,-0.8 -0.28,-1.52 -0.28,-0.76 -0.92,-1.32 -0.64,-0.56 -1.64,-0.88 -1,-0.36 -2.48,-0.36 -0.88,0 -1.76,0.2 -0.84,0.16 -1.64,0.6 -0.76,0.4 -1.4,1.12 -0.64,0.68 -1.04,1.76 l -3.24,-0.48 q 0.96,-2.8 3.32,-4.44 2.4,-1.64 5.92,-1.64 4.36,0 6.48,1.88 2.16,1.88 2.16,5.04 v 11.84 q 0,0.8 0.48,1.04 0.48,0.2 1.76,0.08 v 2.28 q -0.68,0.12 -1.4,0.2 -0.68,0.08 -1.24,0.08 -0.84,0 -1.68,-0.4 -0.8,-0.36 -1.04,-1.16 -0.04,-0.04 -0.08,-0.24 -0.04,-0.24 -0.08,-0.52 -0.04,-0.28 -0.08,-0.52 0,-0.24 0,-0.28 -1.48,1.52 -3.64,2.44 -2.16,0.96 -4.68,0.96 -1.28,0 -2.52,-0.32 -1.24,-0.28 -2.2,-0.96 -0.96,-0.64 -1.56,-1.6 -0.6,-1 -0.6,-2.44 z m 3.52,-0.36 q 0,1.44 1.08,2.16 1.08,0.68 3,0.68 2.28,0 4.08,-0.88 1.84,-0.88 3.36,-2.28 0,-0.44 0,-1.2 0,-0.76 0,-1.6 0.04,-0.84 0.04,-1.6 0,-0.76 0,-1.2 -2.32,0.32 -4.44,0.76 -2.08,0.44 -3.68,1.12 -1.56,0.68 -2.52,1.68 -0.92,0.96 -0.92,2.36 z" />
    </g>
    <g
       id="text33"
       style="font-size:40px;font-family:'IDDianHei 55J';fill:#2d5999;fill-opacity:1"
       aria-label="r">
      <path
         id="path70"
         style="font-size:40px;font-family:'IDDianHei 55J';fill:#2d5999;fill-opacity:1"
         d="m 82.4325,-7.3475 v 4.4 q 0.6,-0.88 1.48,-1.76 0.92,-0.88 2,-1.56 1.08,-0.68 2.2,-1.12 1.16,-0.44 2.2,-0.44 v 2.92 q -0.8,0 -1.8,0.28 -1,0.28 -2.08,0.88 -1.04,0.56 -2.08,1.48 -1.04,0.88 -1.92,2.12 v 14.44 h -3.44 v -21.64 z" />
    </g>
    <g
       id="text35"
       style="font-size:40px;font-family:'IDDianHei 55J';fill:#2d5999;fill-opacity:1"
       aria-label="t">
      <path
         id="path73"
         style="font-size:40px;font-family:'IDDianHei 55J';fill:#2d5999;fill-opacity:1"
         d="m 98.1875,-6.9475 v -6.04 h 3.4 v 6.04 h 4.72 v 2.84 h -4.72 v 13.72 q 0,1.36 0.72,1.8 0.72,0.4 2.04,0.4 1,0 1.92,-0.4 v 2.84 q -1.68,0.48 -3.56,0.48 -1,0 -1.84,-0.2 -0.8,-0.2 -1.4,-0.68 -0.6,-0.48 -0.96,-1.2 -0.32,-0.76 -0.32,-1.88 v -14.88 h -3.6 v -2.84 z" />
    </g>
  </g>
</svg>
